<mxfile host="app.diagrams.net" modified="2023-11-02T14:28:38.760Z" agent="Mozilla/5.0 (Windows NT 10.0; Win64; x64; rv:109.0) Gecko/20100101 Firefox/119.0" etag="oijqDq_OiJRgnLNLDrMN" version="22.0.8" type="device">
  <diagram name="Pagina-1" id="HVrx4mBCEq5tj3mh1qI3">
    <mxGraphModel dx="1134" dy="619" grid="1" gridSize="10" guides="1" tooltips="1" connect="1" arrows="1" fold="1" page="1" pageScale="1" pageWidth="3300" pageHeight="2339" math="0" shadow="0">
      <root>
        <mxCell id="0" />
        <mxCell id="1" parent="0" />
        <mxCell id="mEboZhqRd4yFQjhO1t4g-24" value="" style="edgeStyle=orthogonalEdgeStyle;rounded=0;orthogonalLoop=1;jettySize=auto;html=1;" edge="1" parent="1" source="mEboZhqRd4yFQjhO1t4g-20" target="mEboZhqRd4yFQjhO1t4g-23">
          <mxGeometry relative="1" as="geometry" />
        </mxCell>
        <mxCell id="mEboZhqRd4yFQjhO1t4g-37" value="usedWeapon" style="edgeLabel;html=1;align=center;verticalAlign=middle;resizable=0;points=[];" vertex="1" connectable="0" parent="mEboZhqRd4yFQjhO1t4g-24">
          <mxGeometry x="0.2673" y="-1" relative="1" as="geometry">
            <mxPoint as="offset" />
          </mxGeometry>
        </mxCell>
        <mxCell id="mEboZhqRd4yFQjhO1t4g-30" value="" style="edgeStyle=orthogonalEdgeStyle;rounded=0;orthogonalLoop=1;jettySize=auto;html=1;" edge="1" parent="1" source="mEboZhqRd4yFQjhO1t4g-20" target="mEboZhqRd4yFQjhO1t4g-29">
          <mxGeometry relative="1" as="geometry">
            <Array as="points">
              <mxPoint x="710" y="440" />
              <mxPoint x="1000" y="440" />
              <mxPoint x="1000" y="200" />
            </Array>
          </mxGeometry>
        </mxCell>
        <mxCell id="mEboZhqRd4yFQjhO1t4g-41" value="occurredInPatrolDivsionArea" style="edgeLabel;html=1;align=center;verticalAlign=middle;resizable=0;points=[];" vertex="1" connectable="0" parent="mEboZhqRd4yFQjhO1t4g-30">
          <mxGeometry x="-0.0553" y="2" relative="1" as="geometry">
            <mxPoint x="20" y="-108" as="offset" />
          </mxGeometry>
        </mxCell>
        <mxCell id="mEboZhqRd4yFQjhO1t4g-32" value="" style="edgeStyle=orthogonalEdgeStyle;rounded=0;orthogonalLoop=1;jettySize=auto;html=1;" edge="1" parent="1" source="mEboZhqRd4yFQjhO1t4g-20" target="mEboZhqRd4yFQjhO1t4g-31">
          <mxGeometry relative="1" as="geometry">
            <Array as="points">
              <mxPoint x="650" y="600" />
              <mxPoint x="440" y="600" />
            </Array>
          </mxGeometry>
        </mxCell>
        <mxCell id="mEboZhqRd4yFQjhO1t4g-44" value="hasModusOperandi" style="edgeLabel;html=1;align=center;verticalAlign=middle;resizable=0;points=[];" vertex="1" connectable="0" parent="mEboZhqRd4yFQjhO1t4g-32">
          <mxGeometry x="0.088" y="2" relative="1" as="geometry">
            <mxPoint x="-1" as="offset" />
          </mxGeometry>
        </mxCell>
        <mxCell id="mEboZhqRd4yFQjhO1t4g-34" value="" style="edgeStyle=orthogonalEdgeStyle;rounded=0;orthogonalLoop=1;jettySize=auto;html=1;" edge="1" parent="1" source="mEboZhqRd4yFQjhO1t4g-20" target="mEboZhqRd4yFQjhO1t4g-33">
          <mxGeometry relative="1" as="geometry">
            <Array as="points">
              <mxPoint x="690" y="420" />
              <mxPoint x="880" y="420" />
            </Array>
          </mxGeometry>
        </mxCell>
        <mxCell id="mEboZhqRd4yFQjhO1t4g-42" value="hasPremis" style="edgeLabel;html=1;align=center;verticalAlign=middle;resizable=0;points=[];" vertex="1" connectable="0" parent="mEboZhqRd4yFQjhO1t4g-34">
          <mxGeometry x="-0.0942" y="1" relative="1" as="geometry">
            <mxPoint as="offset" />
          </mxGeometry>
        </mxCell>
        <mxCell id="mEboZhqRd4yFQjhO1t4g-36" value="" style="edgeStyle=orthogonalEdgeStyle;rounded=0;orthogonalLoop=1;jettySize=auto;html=1;" edge="1" parent="1" source="mEboZhqRd4yFQjhO1t4g-20" target="mEboZhqRd4yFQjhO1t4g-35">
          <mxGeometry relative="1" as="geometry" />
        </mxCell>
        <mxCell id="mEboZhqRd4yFQjhO1t4g-40" value="occurredOnDate" style="edgeLabel;html=1;align=center;verticalAlign=middle;resizable=0;points=[];" vertex="1" connectable="0" parent="mEboZhqRd4yFQjhO1t4g-36">
          <mxGeometry x="-0.4452" relative="1" as="geometry">
            <mxPoint x="146" as="offset" />
          </mxGeometry>
        </mxCell>
        <mxCell id="mEboZhqRd4yFQjhO1t4g-50" style="edgeStyle=orthogonalEdgeStyle;rounded=0;orthogonalLoop=1;jettySize=auto;html=1;entryX=0.5;entryY=0;entryDx=0;entryDy=0;" edge="1" parent="1" source="mEboZhqRd4yFQjhO1t4g-20" target="mEboZhqRd4yFQjhO1t4g-21">
          <mxGeometry relative="1" as="geometry" />
        </mxCell>
        <mxCell id="mEboZhqRd4yFQjhO1t4g-52" value="isOfType" style="edgeLabel;html=1;align=center;verticalAlign=middle;resizable=0;points=[];" vertex="1" connectable="0" parent="mEboZhqRd4yFQjhO1t4g-50">
          <mxGeometry x="0.1417" y="-1" relative="1" as="geometry">
            <mxPoint x="1" y="47" as="offset" />
          </mxGeometry>
        </mxCell>
        <mxCell id="mEboZhqRd4yFQjhO1t4g-51" style="edgeStyle=orthogonalEdgeStyle;rounded=0;orthogonalLoop=1;jettySize=auto;html=1;exitX=1;exitY=1;exitDx=0;exitDy=0;entryX=0.5;entryY=0;entryDx=0;entryDy=0;" edge="1" parent="1" source="mEboZhqRd4yFQjhO1t4g-20" target="mEboZhqRd4yFQjhO1t4g-25">
          <mxGeometry relative="1" as="geometry">
            <Array as="points">
              <mxPoint x="700" y="548" />
              <mxPoint x="700" y="760" />
              <mxPoint x="880" y="760" />
            </Array>
          </mxGeometry>
        </mxCell>
        <mxCell id="mEboZhqRd4yFQjhO1t4g-53" value="occurredOnVictim" style="edgeLabel;html=1;align=center;verticalAlign=middle;resizable=0;points=[];" vertex="1" connectable="0" parent="mEboZhqRd4yFQjhO1t4g-51">
          <mxGeometry x="0.4632" y="2" relative="1" as="geometry">
            <mxPoint as="offset" />
          </mxGeometry>
        </mxCell>
        <mxCell id="mEboZhqRd4yFQjhO1t4g-108" style="edgeStyle=orthogonalEdgeStyle;rounded=0;orthogonalLoop=1;jettySize=auto;html=1;entryX=0;entryY=0.5;entryDx=0;entryDy=0;exitX=0.999;exitY=0.378;exitDx=0;exitDy=0;exitPerimeter=0;" edge="1" parent="1" source="mEboZhqRd4yFQjhO1t4g-20" target="mEboZhqRd4yFQjhO1t4g-27">
          <mxGeometry relative="1" as="geometry">
            <mxPoint x="810" y="510" as="sourcePoint" />
            <mxPoint x="1300" y="320" as="targetPoint" />
            <Array as="points">
              <mxPoint x="720" y="480" />
              <mxPoint x="1060" y="480" />
              <mxPoint x="1060" y="360" />
            </Array>
          </mxGeometry>
        </mxCell>
        <mxCell id="mEboZhqRd4yFQjhO1t4g-109" value="occurredInLocation" style="edgeLabel;html=1;align=center;verticalAlign=middle;resizable=0;points=[];" vertex="1" connectable="0" parent="mEboZhqRd4yFQjhO1t4g-108">
          <mxGeometry x="-0.2861" y="-1" relative="1" as="geometry">
            <mxPoint x="76" y="-1" as="offset" />
          </mxGeometry>
        </mxCell>
        <mxCell id="mEboZhqRd4yFQjhO1t4g-119" style="edgeStyle=orthogonalEdgeStyle;rounded=0;orthogonalLoop=1;jettySize=auto;html=1;entryX=0;entryY=1;entryDx=0;entryDy=0;" edge="1" parent="1" source="mEboZhqRd4yFQjhO1t4g-20" target="mEboZhqRd4yFQjhO1t4g-35">
          <mxGeometry relative="1" as="geometry">
            <Array as="points">
              <mxPoint x="750" y="540" />
              <mxPoint x="750" y="570" />
              <mxPoint x="1140" y="570" />
              <mxPoint x="1140" y="548" />
            </Array>
          </mxGeometry>
        </mxCell>
        <mxCell id="mEboZhqRd4yFQjhO1t4g-120" value="reportedOnDate" style="edgeLabel;html=1;align=center;verticalAlign=middle;resizable=0;points=[];" vertex="1" connectable="0" parent="mEboZhqRd4yFQjhO1t4g-119">
          <mxGeometry x="-0.2841" y="1" relative="1" as="geometry">
            <mxPoint as="offset" />
          </mxGeometry>
        </mxCell>
        <mxCell id="mEboZhqRd4yFQjhO1t4g-20" value="crimeEvent" style="ellipse;whiteSpace=wrap;html=1;aspect=fixed;fillColor=#ffe6cc;strokeColor=#d79b00;" vertex="1" parent="1">
          <mxGeometry x="640" y="480" width="80" height="80" as="geometry" />
        </mxCell>
        <mxCell id="mEboZhqRd4yFQjhO1t4g-21" value="crime" style="ellipse;whiteSpace=wrap;html=1;fillColor=#ffe6cc;strokeColor=#d79b00;" vertex="1" parent="1">
          <mxGeometry x="640" y="879.42" width="80" height="80" as="geometry" />
        </mxCell>
        <mxCell id="mEboZhqRd4yFQjhO1t4g-23" value="weapon" style="ellipse;whiteSpace=wrap;html=1;" vertex="1" parent="1">
          <mxGeometry x="640" y="160" width="80" height="80" as="geometry" />
        </mxCell>
        <mxCell id="mEboZhqRd4yFQjhO1t4g-122" style="edgeStyle=orthogonalEdgeStyle;rounded=0;orthogonalLoop=1;jettySize=auto;html=1;exitX=0.5;exitY=0;exitDx=0;exitDy=0;entryX=1;entryY=1;entryDx=0;entryDy=0;" edge="1" parent="1" source="mEboZhqRd4yFQjhO1t4g-27" target="mEboZhqRd4yFQjhO1t4g-29">
          <mxGeometry relative="1" as="geometry">
            <Array as="points">
              <mxPoint x="1240" y="228" />
            </Array>
          </mxGeometry>
        </mxCell>
        <mxCell id="mEboZhqRd4yFQjhO1t4g-123" value="underPatrolDivision" style="edgeLabel;html=1;align=center;verticalAlign=middle;resizable=0;points=[];" vertex="1" connectable="0" parent="mEboZhqRd4yFQjhO1t4g-122">
          <mxGeometry x="0.5925" y="2" relative="1" as="geometry">
            <mxPoint x="44" y="20" as="offset" />
          </mxGeometry>
        </mxCell>
        <mxCell id="mEboZhqRd4yFQjhO1t4g-124" style="edgeStyle=orthogonalEdgeStyle;rounded=0;orthogonalLoop=1;jettySize=auto;html=1;exitX=1;exitY=0;exitDx=0;exitDy=0;entryX=0;entryY=1;entryDx=0;entryDy=0;" edge="1" parent="1" source="mEboZhqRd4yFQjhO1t4g-27" target="mEboZhqRd4yFQjhO1t4g-65">
          <mxGeometry relative="1" as="geometry">
            <Array as="points">
              <mxPoint x="1290" y="332" />
              <mxPoint x="1290" y="230" />
              <mxPoint x="1590" y="230" />
              <mxPoint x="1590" y="228" />
            </Array>
          </mxGeometry>
        </mxCell>
        <mxCell id="mEboZhqRd4yFQjhO1t4g-125" value="underCouncilDistrict" style="edgeLabel;html=1;align=center;verticalAlign=middle;resizable=0;points=[];" vertex="1" connectable="0" parent="mEboZhqRd4yFQjhO1t4g-124">
          <mxGeometry x="-0.3836" y="-1" relative="1" as="geometry">
            <mxPoint x="106" as="offset" />
          </mxGeometry>
        </mxCell>
        <mxCell id="mEboZhqRd4yFQjhO1t4g-27" value="location" style="ellipse;whiteSpace=wrap;html=1;fillColor=#ffe6cc;strokeColor=#d79b00;" vertex="1" parent="1">
          <mxGeometry x="1200" y="325" width="80" height="80" as="geometry" />
        </mxCell>
        <mxCell id="mEboZhqRd4yFQjhO1t4g-69" style="edgeStyle=orthogonalEdgeStyle;rounded=0;orthogonalLoop=1;jettySize=auto;html=1;exitX=1;exitY=0;exitDx=0;exitDy=0;entryX=0;entryY=0;entryDx=0;entryDy=0;" edge="1" parent="1" source="mEboZhqRd4yFQjhO1t4g-29" target="mEboZhqRd4yFQjhO1t4g-65">
          <mxGeometry relative="1" as="geometry" />
        </mxCell>
        <mxCell id="mEboZhqRd4yFQjhO1t4g-70" value="belongsToCouncilDistrict" style="edgeLabel;html=1;align=center;verticalAlign=middle;resizable=0;points=[];" vertex="1" connectable="0" parent="mEboZhqRd4yFQjhO1t4g-69">
          <mxGeometry x="-0.2647" relative="1" as="geometry">
            <mxPoint as="offset" />
          </mxGeometry>
        </mxCell>
        <mxCell id="mEboZhqRd4yFQjhO1t4g-29" value="patrolDivision" style="ellipse;whiteSpace=wrap;html=1;" vertex="1" parent="1">
          <mxGeometry x="1080" y="160" width="80" height="80" as="geometry" />
        </mxCell>
        <mxCell id="mEboZhqRd4yFQjhO1t4g-31" value="&lt;div&gt;modus&lt;/div&gt;&lt;div&gt;Operandi&lt;/div&gt;" style="ellipse;whiteSpace=wrap;html=1;" vertex="1" parent="1">
          <mxGeometry x="240" y="959.4200000000001" width="80" height="80" as="geometry" />
        </mxCell>
        <mxCell id="mEboZhqRd4yFQjhO1t4g-33" value="premis" style="ellipse;whiteSpace=wrap;html=1;" vertex="1" parent="1">
          <mxGeometry x="840" y="160" width="80" height="80" as="geometry" />
        </mxCell>
        <mxCell id="mEboZhqRd4yFQjhO1t4g-35" value="day" style="ellipse;whiteSpace=wrap;html=1;fillColor=#ffe6cc;strokeColor=#d79b00;" vertex="1" parent="1">
          <mxGeometry x="1200" y="480" width="80" height="80" as="geometry" />
        </mxCell>
        <mxCell id="mEboZhqRd4yFQjhO1t4g-77" value="" style="edgeStyle=orthogonalEdgeStyle;rounded=0;orthogonalLoop=1;jettySize=auto;html=1;" edge="1" parent="1" source="mEboZhqRd4yFQjhO1t4g-25" target="mEboZhqRd4yFQjhO1t4g-76">
          <mxGeometry relative="1" as="geometry">
            <Array as="points">
              <mxPoint x="880" y="1160" />
              <mxPoint x="1020" y="1160" />
            </Array>
          </mxGeometry>
        </mxCell>
        <mxCell id="mEboZhqRd4yFQjhO1t4g-78" value="rdfs:subclassOf" style="edgeLabel;html=1;align=center;verticalAlign=middle;resizable=0;points=[];" vertex="1" connectable="0" parent="mEboZhqRd4yFQjhO1t4g-77">
          <mxGeometry x="-0.2889" y="-1" relative="1" as="geometry">
            <mxPoint x="20" y="-1" as="offset" />
          </mxGeometry>
        </mxCell>
        <mxCell id="mEboZhqRd4yFQjhO1t4g-25" value="victim" style="ellipse;whiteSpace=wrap;html=1;" vertex="1" parent="1">
          <mxGeometry x="840" y="1040" width="80" height="80" as="geometry" />
        </mxCell>
        <mxCell id="mEboZhqRd4yFQjhO1t4g-55" style="edgeStyle=orthogonalEdgeStyle;rounded=0;orthogonalLoop=1;jettySize=auto;html=1;entryX=0.5;entryY=1;entryDx=0;entryDy=0;" edge="1" parent="1" source="mEboZhqRd4yFQjhO1t4g-54" target="mEboZhqRd4yFQjhO1t4g-35">
          <mxGeometry relative="1" as="geometry">
            <Array as="points">
              <mxPoint x="1390" y="720" />
              <mxPoint x="1240" y="720" />
            </Array>
          </mxGeometry>
        </mxCell>
        <mxCell id="mEboZhqRd4yFQjhO1t4g-58" value="openedOnDate" style="edgeLabel;html=1;align=center;verticalAlign=middle;resizable=0;points=[];" vertex="1" connectable="0" parent="mEboZhqRd4yFQjhO1t4g-55">
          <mxGeometry x="0.0632" y="1" relative="1" as="geometry">
            <mxPoint x="1" as="offset" />
          </mxGeometry>
        </mxCell>
        <mxCell id="mEboZhqRd4yFQjhO1t4g-57" style="edgeStyle=orthogonalEdgeStyle;rounded=0;orthogonalLoop=1;jettySize=auto;html=1;entryX=1;entryY=1;entryDx=0;entryDy=0;" edge="1" parent="1" source="mEboZhqRd4yFQjhO1t4g-54" target="mEboZhqRd4yFQjhO1t4g-35">
          <mxGeometry relative="1" as="geometry">
            <Array as="points">
              <mxPoint x="1410" y="670" />
              <mxPoint x="1268" y="670" />
            </Array>
          </mxGeometry>
        </mxCell>
        <mxCell id="mEboZhqRd4yFQjhO1t4g-59" value="closedOnDate" style="edgeLabel;html=1;align=center;verticalAlign=middle;resizable=0;points=[];" vertex="1" connectable="0" parent="mEboZhqRd4yFQjhO1t4g-57">
          <mxGeometry x="0.193" relative="1" as="geometry">
            <mxPoint x="1" as="offset" />
          </mxGeometry>
        </mxCell>
        <mxCell id="mEboZhqRd4yFQjhO1t4g-60" style="edgeStyle=orthogonalEdgeStyle;rounded=0;orthogonalLoop=1;jettySize=auto;html=1;entryX=1;entryY=0.5;entryDx=0;entryDy=0;" edge="1" parent="1" source="mEboZhqRd4yFQjhO1t4g-54" target="mEboZhqRd4yFQjhO1t4g-27">
          <mxGeometry relative="1" as="geometry">
            <Array as="points">
              <mxPoint x="1470" y="850" />
              <mxPoint x="1470" y="360" />
            </Array>
          </mxGeometry>
        </mxCell>
        <mxCell id="mEboZhqRd4yFQjhO1t4g-61" value="locatedIn" style="edgeLabel;html=1;align=center;verticalAlign=middle;resizable=0;points=[];" vertex="1" connectable="0" parent="mEboZhqRd4yFQjhO1t4g-60">
          <mxGeometry x="0.0481" y="-2" relative="1" as="geometry">
            <mxPoint y="-1" as="offset" />
          </mxGeometry>
        </mxCell>
        <mxCell id="mEboZhqRd4yFQjhO1t4g-63" value="" style="edgeStyle=orthogonalEdgeStyle;rounded=0;orthogonalLoop=1;jettySize=auto;html=1;" edge="1" parent="1" source="mEboZhqRd4yFQjhO1t4g-54" target="mEboZhqRd4yFQjhO1t4g-62">
          <mxGeometry relative="1" as="geometry" />
        </mxCell>
        <mxCell id="mEboZhqRd4yFQjhO1t4g-64" value="hasNaics" style="edgeLabel;html=1;align=center;verticalAlign=middle;resizable=0;points=[];" vertex="1" connectable="0" parent="mEboZhqRd4yFQjhO1t4g-63">
          <mxGeometry x="-0.2033" relative="1" as="geometry">
            <mxPoint as="offset" />
          </mxGeometry>
        </mxCell>
        <mxCell id="mEboZhqRd4yFQjhO1t4g-66" value="" style="edgeStyle=orthogonalEdgeStyle;rounded=0;orthogonalLoop=1;jettySize=auto;html=1;" edge="1" parent="1" source="mEboZhqRd4yFQjhO1t4g-54" target="mEboZhqRd4yFQjhO1t4g-65">
          <mxGeometry relative="1" as="geometry">
            <Array as="points">
              <mxPoint x="1640" y="860" />
            </Array>
          </mxGeometry>
        </mxCell>
        <mxCell id="mEboZhqRd4yFQjhO1t4g-67" value="locatedInCouncilDistrict" style="edgeLabel;html=1;align=center;verticalAlign=middle;resizable=0;points=[];" vertex="1" connectable="0" parent="mEboZhqRd4yFQjhO1t4g-66">
          <mxGeometry x="0.3708" relative="1" as="geometry">
            <mxPoint y="-1" as="offset" />
          </mxGeometry>
        </mxCell>
        <mxCell id="mEboZhqRd4yFQjhO1t4g-74" value="" style="edgeStyle=orthogonalEdgeStyle;rounded=0;orthogonalLoop=1;jettySize=auto;html=1;" edge="1" parent="1" source="mEboZhqRd4yFQjhO1t4g-54" target="mEboZhqRd4yFQjhO1t4g-73">
          <mxGeometry relative="1" as="geometry" />
        </mxCell>
        <mxCell id="mEboZhqRd4yFQjhO1t4g-75" value="ownedBy" style="edgeLabel;html=1;align=center;verticalAlign=middle;resizable=0;points=[];" vertex="1" connectable="0" parent="mEboZhqRd4yFQjhO1t4g-74">
          <mxGeometry x="-0.0188" y="1" relative="1" as="geometry">
            <mxPoint x="-3" y="29" as="offset" />
          </mxGeometry>
        </mxCell>
        <mxCell id="mEboZhqRd4yFQjhO1t4g-128" style="edgeStyle=orthogonalEdgeStyle;rounded=0;orthogonalLoop=1;jettySize=auto;html=1;exitX=1;exitY=1;exitDx=0;exitDy=0;entryX=0.5;entryY=1;entryDx=0;entryDy=0;" edge="1" parent="1" source="mEboZhqRd4yFQjhO1t4g-54" target="mEboZhqRd4yFQjhO1t4g-110">
          <mxGeometry relative="1" as="geometry" />
        </mxCell>
        <mxCell id="mEboZhqRd4yFQjhO1t4g-129" value="locatedInCity" style="edgeLabel;html=1;align=center;verticalAlign=middle;resizable=0;points=[];" vertex="1" connectable="0" parent="mEboZhqRd4yFQjhO1t4g-128">
          <mxGeometry x="0.7579" y="1" relative="1" as="geometry">
            <mxPoint as="offset" />
          </mxGeometry>
        </mxCell>
        <mxCell id="mEboZhqRd4yFQjhO1t4g-54" value="business" style="ellipse;whiteSpace=wrap;html=1;aspect=fixed;fillColor=#ffe6cc;strokeColor=#d79b00;" vertex="1" parent="1">
          <mxGeometry x="1360" y="840" width="80" height="80" as="geometry" />
        </mxCell>
        <mxCell id="mEboZhqRd4yFQjhO1t4g-62" value="naics" style="ellipse;whiteSpace=wrap;html=1;" vertex="1" parent="1">
          <mxGeometry x="1360" y="1120" width="80" height="80" as="geometry" />
        </mxCell>
        <mxCell id="mEboZhqRd4yFQjhO1t4g-112" style="edgeStyle=orthogonalEdgeStyle;rounded=0;orthogonalLoop=1;jettySize=auto;html=1;entryX=0;entryY=0.5;entryDx=0;entryDy=0;" edge="1" parent="1" source="mEboZhqRd4yFQjhO1t4g-65" target="mEboZhqRd4yFQjhO1t4g-110">
          <mxGeometry relative="1" as="geometry" />
        </mxCell>
        <mxCell id="mEboZhqRd4yFQjhO1t4g-113" value="belongsToCity" style="edgeLabel;html=1;align=center;verticalAlign=middle;resizable=0;points=[];" vertex="1" connectable="0" parent="mEboZhqRd4yFQjhO1t4g-112">
          <mxGeometry x="-0.0423" y="1" relative="1" as="geometry">
            <mxPoint as="offset" />
          </mxGeometry>
        </mxCell>
        <mxCell id="mEboZhqRd4yFQjhO1t4g-126" style="edgeStyle=orthogonalEdgeStyle;rounded=0;orthogonalLoop=1;jettySize=auto;html=1;entryX=1;entryY=0.5;entryDx=0;entryDy=0;" edge="1" parent="1" source="mEboZhqRd4yFQjhO1t4g-65" target="mEboZhqRd4yFQjhO1t4g-29">
          <mxGeometry relative="1" as="geometry" />
        </mxCell>
        <mxCell id="mEboZhqRd4yFQjhO1t4g-127" value="belongsToPatrolDivision" style="edgeLabel;html=1;align=center;verticalAlign=middle;resizable=0;points=[];" vertex="1" connectable="0" parent="mEboZhqRd4yFQjhO1t4g-126">
          <mxGeometry x="0.3753" relative="1" as="geometry">
            <mxPoint as="offset" />
          </mxGeometry>
        </mxCell>
        <mxCell id="mEboZhqRd4yFQjhO1t4g-65" value="councilDistrict" style="ellipse;whiteSpace=wrap;html=1;" vertex="1" parent="1">
          <mxGeometry x="1600" y="160" width="80" height="80" as="geometry" />
        </mxCell>
        <mxCell id="mEboZhqRd4yFQjhO1t4g-79" style="edgeStyle=orthogonalEdgeStyle;rounded=0;orthogonalLoop=1;jettySize=auto;html=1;entryX=1;entryY=0;entryDx=0;entryDy=0;" edge="1" parent="1" source="mEboZhqRd4yFQjhO1t4g-73" target="mEboZhqRd4yFQjhO1t4g-76">
          <mxGeometry relative="1" as="geometry">
            <Array as="points">
              <mxPoint x="1200" y="1160" />
              <mxPoint x="1068" y="1160" />
            </Array>
          </mxGeometry>
        </mxCell>
        <mxCell id="mEboZhqRd4yFQjhO1t4g-80" value="rdfs:subclassOf" style="edgeLabel;html=1;align=center;verticalAlign=middle;resizable=0;points=[];" vertex="1" connectable="0" parent="mEboZhqRd4yFQjhO1t4g-79">
          <mxGeometry x="0.146" relative="1" as="geometry">
            <mxPoint x="18" as="offset" />
          </mxGeometry>
        </mxCell>
        <mxCell id="mEboZhqRd4yFQjhO1t4g-73" value="owner" style="ellipse;whiteSpace=wrap;html=1;" vertex="1" parent="1">
          <mxGeometry x="1160" y="1040" width="80" height="80" as="geometry" />
        </mxCell>
        <mxCell id="mEboZhqRd4yFQjhO1t4g-76" value="foaf:person" style="ellipse;whiteSpace=wrap;html=1;" vertex="1" parent="1">
          <mxGeometry x="1000" y="1200" width="80" height="80" as="geometry" />
        </mxCell>
        <mxCell id="mEboZhqRd4yFQjhO1t4g-91" style="edgeStyle=orthogonalEdgeStyle;rounded=0;orthogonalLoop=1;jettySize=auto;html=1;entryX=0.5;entryY=1;entryDx=0;entryDy=0;" edge="1" parent="1" source="mEboZhqRd4yFQjhO1t4g-83" target="mEboZhqRd4yFQjhO1t4g-21">
          <mxGeometry relative="1" as="geometry">
            <Array as="points">
              <mxPoint x="440" y="1070" />
              <mxPoint x="680" y="1070" />
            </Array>
          </mxGeometry>
        </mxCell>
        <mxCell id="mEboZhqRd4yFQjhO1t4g-94" value="rdfs:subclassOf" style="edgeLabel;html=1;align=center;verticalAlign=middle;resizable=0;points=[];" vertex="1" connectable="0" parent="mEboZhqRd4yFQjhO1t4g-91">
          <mxGeometry x="-0.3103" y="-1" relative="1" as="geometry">
            <mxPoint x="16" as="offset" />
          </mxGeometry>
        </mxCell>
        <mxCell id="mEboZhqRd4yFQjhO1t4g-83" value="murderCrime" style="ellipse;whiteSpace=wrap;html=1;" vertex="1" parent="1">
          <mxGeometry x="400" y="1160" width="80" height="80" as="geometry" />
        </mxCell>
        <mxCell id="mEboZhqRd4yFQjhO1t4g-93" style="edgeStyle=orthogonalEdgeStyle;rounded=0;orthogonalLoop=1;jettySize=auto;html=1;exitX=0.5;exitY=0;exitDx=0;exitDy=0;entryX=0.5;entryY=1;entryDx=0;entryDy=0;" edge="1" parent="1" source="mEboZhqRd4yFQjhO1t4g-84" target="mEboZhqRd4yFQjhO1t4g-21">
          <mxGeometry relative="1" as="geometry" />
        </mxCell>
        <mxCell id="mEboZhqRd4yFQjhO1t4g-97" value="rdfs:subclassOf" style="edgeLabel;html=1;align=center;verticalAlign=middle;resizable=0;points=[];" vertex="1" connectable="0" parent="mEboZhqRd4yFQjhO1t4g-93">
          <mxGeometry x="-0.6927" relative="1" as="geometry">
            <mxPoint as="offset" />
          </mxGeometry>
        </mxCell>
        <mxCell id="mEboZhqRd4yFQjhO1t4g-84" value="theftCrime" style="ellipse;whiteSpace=wrap;html=1;" vertex="1" parent="1">
          <mxGeometry x="640" y="1160" width="80" height="80" as="geometry" />
        </mxCell>
        <mxCell id="mEboZhqRd4yFQjhO1t4g-92" style="edgeStyle=orthogonalEdgeStyle;rounded=0;orthogonalLoop=1;jettySize=auto;html=1;entryX=0.5;entryY=1;entryDx=0;entryDy=0;exitX=0.5;exitY=0;exitDx=0;exitDy=0;" edge="1" parent="1" source="mEboZhqRd4yFQjhO1t4g-85" target="mEboZhqRd4yFQjhO1t4g-21">
          <mxGeometry relative="1" as="geometry">
            <mxPoint x="560" y="1150.5800000000002" as="sourcePoint" />
            <mxPoint x="680" y="1029.9999999999998" as="targetPoint" />
            <Array as="points">
              <mxPoint x="560" y="1111" />
              <mxPoint x="680" y="1111" />
            </Array>
          </mxGeometry>
        </mxCell>
        <mxCell id="mEboZhqRd4yFQjhO1t4g-96" value="rdfs:subclassOf" style="edgeLabel;html=1;align=center;verticalAlign=middle;resizable=0;points=[];" vertex="1" connectable="0" parent="mEboZhqRd4yFQjhO1t4g-92">
          <mxGeometry x="-0.444" relative="1" as="geometry">
            <mxPoint x="32" as="offset" />
          </mxGeometry>
        </mxCell>
        <mxCell id="mEboZhqRd4yFQjhO1t4g-85" value="sexualCrime" style="ellipse;whiteSpace=wrap;html=1;" vertex="1" parent="1">
          <mxGeometry x="520" y="1160" width="80" height="80" as="geometry" />
        </mxCell>
        <mxCell id="mEboZhqRd4yFQjhO1t4g-98" value="&lt;div&gt;weaponCode: int&lt;/div&gt;&lt;div&gt;weaponDesc: string&lt;br&gt;&lt;/div&gt;" style="text;html=1;strokeColor=none;fillColor=none;align=left;verticalAlign=bottom;whiteSpace=wrap;rounded=0;" vertex="1" parent="1">
          <mxGeometry x="640" y="80" width="160" height="80" as="geometry" />
        </mxCell>
        <mxCell id="mEboZhqRd4yFQjhO1t4g-99" value="&lt;div&gt;moCode: int&lt;/div&gt;&lt;div&gt;moDesc: string&lt;br&gt;&lt;/div&gt;" style="text;html=1;strokeColor=none;fillColor=none;align=left;verticalAlign=bottom;whiteSpace=wrap;rounded=0;" vertex="1" parent="1">
          <mxGeometry x="240" y="1000" width="160" height="80" as="geometry" />
        </mxCell>
        <mxCell id="mEboZhqRd4yFQjhO1t4g-100" value="premisCode: int&lt;div&gt;premisDesc: string&lt;br&gt;&lt;/div&gt;" style="text;html=1;strokeColor=none;fillColor=none;align=left;verticalAlign=bottom;whiteSpace=wrap;rounded=0;" vertex="1" parent="1">
          <mxGeometry x="840" y="80" width="160" height="80" as="geometry" />
        </mxCell>
        <mxCell id="mEboZhqRd4yFQjhO1t4g-101" value="&lt;div&gt;pdAreaCode: int&lt;/div&gt;&lt;div&gt;pdAreaName: string&lt;br&gt;&lt;/div&gt;" style="text;html=1;strokeColor=none;fillColor=none;align=left;verticalAlign=bottom;whiteSpace=wrap;rounded=0;" vertex="1" parent="1">
          <mxGeometry x="1080" y="80" width="160" height="80" as="geometry" />
        </mxCell>
        <mxCell id="mEboZhqRd4yFQjhO1t4g-102" value="cdCode: int&lt;div&gt;cdName: string&lt;br&gt;&lt;/div&gt;" style="text;html=1;strokeColor=none;fillColor=none;align=left;verticalAlign=bottom;whiteSpace=wrap;rounded=0;" vertex="1" parent="1">
          <mxGeometry x="1600" y="80" width="160" height="80" as="geometry" />
        </mxCell>
        <mxCell id="mEboZhqRd4yFQjhO1t4g-103" value="&lt;div&gt;naincsCode: int&lt;/div&gt;&lt;div&gt;naincsDescription: string&lt;br&gt;&lt;/div&gt;" style="text;html=1;strokeColor=none;fillColor=none;align=left;verticalAlign=top;whiteSpace=wrap;rounded=0;" vertex="1" parent="1">
          <mxGeometry x="1360" y="1200" width="160" height="80" as="geometry" />
        </mxCell>
        <mxCell id="mEboZhqRd4yFQjhO1t4g-104" value="&lt;div&gt;age: int&lt;/div&gt;&lt;div&gt;sex: string (?)&lt;/div&gt;&lt;div&gt;descent: string (?)&lt;br&gt;&lt;/div&gt;" style="text;html=1;strokeColor=none;fillColor=none;align=left;verticalAlign=top;whiteSpace=wrap;rounded=0;" vertex="1" parent="1">
          <mxGeometry x="920" y="1039.42" width="160" height="80" as="geometry" />
        </mxCell>
        <mxCell id="mEboZhqRd4yFQjhO1t4g-105" value="&lt;div&gt;firstName: string&lt;/div&gt;&lt;div&gt;lastName: string&lt;br&gt;&lt;/div&gt;" style="text;html=1;strokeColor=none;fillColor=none;align=left;verticalAlign=top;whiteSpace=wrap;rounded=0;" vertex="1" parent="1">
          <mxGeometry x="1240" y="1040" width="160" height="80" as="geometry" />
        </mxCell>
        <mxCell id="mEboZhqRd4yFQjhO1t4g-106" value="&lt;div&gt;date^^xsd:date&lt;/div&gt;&lt;div&gt;activeCases: int&lt;/div&gt;&lt;div&gt;nOfDeaths: int&lt;/div&gt;" style="text;html=1;strokeColor=none;fillColor=none;align=left;verticalAlign=bottom;whiteSpace=wrap;rounded=0;" vertex="1" parent="1">
          <mxGeometry x="1200" y="402" width="160" height="80" as="geometry" />
        </mxCell>
        <mxCell id="mEboZhqRd4yFQjhO1t4g-107" value="&lt;div&gt;businessId: int&lt;/div&gt;&lt;div&gt;businessName: string&lt;/div&gt;&lt;div&gt;&lt;br&gt;&lt;/div&gt;" style="text;html=1;strokeColor=none;fillColor=none;align=left;verticalAlign=top;whiteSpace=wrap;rounded=0;" vertex="1" parent="1">
          <mxGeometry x="1440" y="870" width="160" height="80" as="geometry" />
        </mxCell>
        <mxCell id="mEboZhqRd4yFQjhO1t4g-110" value="city" style="ellipse;whiteSpace=wrap;html=1;" vertex="1" parent="1">
          <mxGeometry x="1920" y="160" width="80" height="80" as="geometry" />
        </mxCell>
        <mxCell id="mEboZhqRd4yFQjhO1t4g-116" value="&lt;div&gt;latitude: double&lt;/div&gt;&lt;div&gt;longitude: double&lt;br&gt;&lt;/div&gt;&lt;div&gt;description: string&lt;br&gt;&lt;/div&gt;" style="text;html=1;strokeColor=none;fillColor=none;align=left;verticalAlign=bottom;whiteSpace=wrap;rounded=0;" vertex="1" parent="1">
          <mxGeometry x="1130" y="240" width="160" height="80" as="geometry" />
        </mxCell>
        <mxCell id="mEboZhqRd4yFQjhO1t4g-117" value="&lt;div&gt;cityName: string&lt;/div&gt;&lt;div&gt;zipCode: int&lt;br&gt;&lt;/div&gt;" style="text;html=1;strokeColor=none;fillColor=none;align=left;verticalAlign=bottom;whiteSpace=wrap;rounded=0;" vertex="1" parent="1">
          <mxGeometry x="1920" y="80" width="160" height="80" as="geometry" />
        </mxCell>
        <mxCell id="mEboZhqRd4yFQjhO1t4g-118" value="&lt;div&gt;crimeId: int&lt;/div&gt;&lt;div&gt;timeOccurred: int&lt;/div&gt;&lt;div&gt;reportedToFbi: bool&lt;/div&gt;&lt;div&gt;&lt;br&gt;&lt;/div&gt;" style="text;html=1;strokeColor=none;fillColor=none;align=left;verticalAlign=bottom;whiteSpace=wrap;rounded=0;" vertex="1" parent="1">
          <mxGeometry x="520" y="440" width="160" height="80" as="geometry" />
        </mxCell>
        <mxCell id="mEboZhqRd4yFQjhO1t4g-121" value="&lt;div&gt;crimeCode: int&lt;/div&gt;&lt;div&gt;crimeDesc: string&lt;br&gt;&lt;/div&gt;" style="text;html=1;strokeColor=none;fillColor=none;align=left;verticalAlign=bottom;whiteSpace=wrap;rounded=0;" vertex="1" parent="1">
          <mxGeometry x="540" y="840" width="160" height="80" as="geometry" />
        </mxCell>
      </root>
    </mxGraphModel>
  </diagram>
</mxfile>
